<?xml version="1.0" encoding="utf-8"?>
<!-- Generator: Adobe Illustrator 24.0.0, SVG Export Plug-In . SVG Version: 6.00 Build 0)  -->
<svg version="1.1" xmlns="http://www.w3.org/2000/svg" xmlns:xlink="http://www.w3.org/1999/xlink" x="0px" y="0px"
	 viewBox="0 0 1640.7 481.9" style="enable-background:new 0 0 1640.7 481.9;" xml:space="preserve">
<style type="text/css">
	.st0{display:none;}
	.st1{display:inline;fill:none;stroke:#000000;stroke-miterlimit:10;}
</style>
<g id="Layer_2">
	<path d="M862.9,123.7v210h-11.1V150.6l-101,101l-101-101v183.1h-11.1v-210l112.2,112.2L862.9,123.7z"/>
	<path d="M1020.3,215.4v118.3h-11.2v-24.5c-10.8,14.9-28.2,24.5-47.9,24.5c-32.6,0-59.1-26.5-59.1-59.1c0-32.6,26.5-59.1,59.1-59.1
		c19.7,0,37.2,9.7,47.9,24.5v-24.5H1020.3z M1009.1,274.5c0-26.4-21.5-47.9-47.9-47.9s-47.9,21.5-47.9,47.9
		c0,26.4,21.5,47.9,47.9,47.9C987.6,322.5,1009.1,301,1009.1,274.5z"/>
	<path d="M1166.9,215.4l-105,210h-11.7l52.5-105l-52.5-105h11.7l46.7,93.3l46.7-93.3H1166.9z"/>
	<path d="M1217.9,333.7v-210h10.4v210H1217.9z"/>
	<path d="M1298.8,134.1v89.4h73.4v10.4h-73.4v99.8h-10.4v-210H1396v10.4H1298.8z"/>
	<path d="M1439.1,206.9c0,3.6-2.9,6.6-6.6,6.6c-3.6,0-6.6-2.9-6.6-6.6c0-3.6,2.9-6.6,6.6-6.6
		C1436.2,200.4,1439.1,203.3,1439.1,206.9z M1426.9,333.4V228.5h11.2v104.9H1426.9z"/>
	<path d="M1509,231.6V291c0,16.6,13.5,30.2,30.2,30.2h1.7v10.4h-1.7c-22.4,0-40.6-18.2-40.6-40.6v-59.4h-17v-10.4h17v-99.6h10.4
		v99.6h31.9v10.4H1509z"/>
</g>
<g id="Layer_4" class="st0">
	<path class="st1" d="M801.7,109.6"/>
	
		<image style="display:inline;overflow:visible;" width="997" height="683" xlink:href="../../Desktop/MIFmockup.png"  transform="matrix(0.48 0 0 0.48 323.1356 64.7548)">
	</image>
</g>
<g id="Layer_5">
	<polygon points="99.7,64.8 338,202.9 515.8,100.3 515.8,152.1 338,254.9 144.4,142.5 144.4,392.6 99.7,392.6 	"/>
</g>
<g id="Layer_6">
	<polygon points="534.6,89.6 534.6,141.2 578.3,115.9 578.3,64.8 	"/>
</g>
<g id="Layer_7">
	<polygon points="578.3,141.2 359.4,266.8 578.3,392.6 578.3,341.6 513.7,304.2 578.3,266.9 578.3,214.6 468.8,277.6 448.8,266.9 
		578.3,192.5 	"/>
</g>
</svg>
